<svg width="29" height="18" viewBox="0 0 29 18" fill="none" xmlns="http://www.w3.org/2000/svg">
<g clip-path="url(#clip0_1045_7587)">
<path d="M28.8101 0H0.0200806V18H28.8101V0Z" fill="#264A9B"/>
<path d="M14.2301 0.0499878V8.93999H0.0600586V0.0499878H14.2301Z" fill="#264A9B"/>
<path d="M14.2301 8.01001V8.94001H12.7601L8.41006 6.21001L7.97006 5.94001L7.46006 5.62001L7.29006 5.51001L6.76006 5.18001L6.57006 5.06001L6.41006 4.96001L6.08006 4.75001L5.97006 4.68001L5.81006 4.58001L4.27006 3.61001L3.57006 3.18001L0.0600586 0.980009V0.0500085L0.0700586 0.0400085L0.100059 0.0500085H1.54006L5.97006 2.83001L6.41006 3.11001L6.52006 3.18001L7.22006 3.61001L7.29006 3.66001L7.55006 3.82001L7.97006 4.09001L8.04006 4.13001L8.41006 4.36001L8.76006 4.58001L9.72006 5.18001L10.4101 5.62001L14.2301 8.01001Z" fill="#FCF5FF"/>
<path d="M14.2301 8.91L14.2401 8.94H13.2901L8.41006 5.88L7.99006 5.62L7.97006 5.6L7.55006 5.34L7.30006 5.18L6.83006 4.89L6.41006 4.62L6.34006 4.58L6.08006 4.41L5.97006 4.35L4.80006 3.61L4.11006 3.18L0.0600586 0.639999V0.0299988L0.0700586 0.0399988L0.100059 0.0499988L5.09006 3.18L5.78006 3.61L5.97006 3.73L6.41006 4.01L6.57006 4.11L6.83006 4.28L7.33006 4.58L7.97006 4.99L8.04006 5.03L8.28006 5.18L8.41006 5.26L8.97006 5.62L14.2301 8.91Z" fill="#FF3B45"/>
<path d="M14.2301 0.229988V1.14999L11.0001 3.17999L10.3101 3.60999L8.76006 4.57999L8.41006 4.79999L8.04006 5.02999L7.97006 5.07999L7.81006 5.17999L7.55006 5.33999L7.29006 5.50999L7.11006 5.61999L6.41006 6.05999L5.97006 6.32999L1.81006 8.93999H0.0600586V8.18999L4.16006 5.61999L4.86006 5.17999L5.81006 4.57999L5.97006 4.47999L6.08006 4.40999L6.41006 4.20999L6.57006 4.10999L7.29006 3.65999L7.36006 3.60999L7.97006 3.22999L8.05006 3.17999L8.41006 2.94999L13.0301 0.0499878H14.1201L14.2301 0.229988Z" fill="#FCF5FF"/>
<path d="M14.2001 0.269988L9.56006 3.17999L8.87006 3.60999L8.41006 3.89999L8.04006 4.12999L7.97006 4.17999L7.33006 4.57999L6.83006 4.88999L6.57006 5.05999L6.41006 5.15999L6.37006 5.17999L5.97006 5.42999L5.68006 5.61999L0.380059 8.93999H0.0600586V8.51999L4.70006 5.61999L5.39006 5.17999L5.97006 4.81999L6.08006 4.74999L6.34006 4.57999L6.41006 4.53999L6.83006 4.27999L7.55006 3.81999L7.89006 3.60999L7.97006 3.55999L8.41006 3.28999L8.58006 3.17999L13.5701 0.0499878H14.0601H14.2301V0.249988L14.2001 0.269988Z" fill="#FF3B45"/>
<path d="M14.24 3.17999H0.0500488V5.61999H14.24V3.17999Z" fill="white"/>
<path d="M14.24 3.60999H0.0500488V5.17999H14.24V3.60999Z" fill="#FF3B45"/>
<path d="M7.98003 0.0499878H6.41003V8.92999H7.98003V0.0499878Z" fill="#CD002A"/>
<path d="M7.97003 5.61999H8.40003V8.93999H5.97003V5.61999H6.40003V3.17999H5.97003V0.0499878H8.40003V3.17999H7.97003V5.61999Z" fill="white"/>
<path d="M7.97008 0.0499878H6.39008V8.92999H7.97008V0.0499878Z" fill="#FF3B45"/>
<path d="M6.97004 12.09L7.67004 10.85L8.39004 12.09H9.83004C9.83004 12.09 9.83004 12.15 9.81004 12.18C9.66004 12.54 9.33004 12.93 9.16004 13.29L9.14004 13.36L9.81004 14.52L9.83004 14.61H8.39004L7.69004 15.85C7.69004 15.85 7.62004 15.78 7.61004 15.75C7.40004 15.42 7.21004 15.05 7.01004 14.71C6.99004 14.68 6.98004 14.65 6.98004 14.62H5.54004L5.56004 14.53L6.23004 13.37L6.21004 13.3C6.04004 12.94 5.71004 12.55 5.56004 12.19C5.55004 12.16 5.54004 12.14 5.54004 12.1H6.98004L6.97004 12.09Z" fill="#FDFDFD"/>
<path d="M22.34 12.1C22.34 12.1 22.47 12.67 22.5 12.69L23.01 12.35C22.96 12.55 22.85 12.73 22.77 12.92C22.93 12.95 23.1 12.95 23.26 12.97C23.29 12.97 23.4 12.98 23.41 13.01C23.34 13.05 22.88 13.24 22.86 13.26C22.81 13.34 23.27 13.67 23.22 13.72C23.14 13.75 22.67 13.58 22.65 13.61L22.7 14.23C22.6 14.19 22.38 13.76 22.32 13.75C22.26 13.74 22.02 14.19 21.92 14.23L21.97 13.61L21.41 13.75C21.41 13.75 21.38 13.73 21.39 13.7C21.42 13.62 21.69 13.44 21.75 13.35C21.77 13.32 21.78 13.3 21.77 13.27L21.22 12.99L21.84 12.92C21.84 12.92 21.61 12.44 21.62 12.35L22.13 12.69C22.13 12.69 22.26 12.21 22.29 12.13C22.29 12.11 22.3 12.06 22.34 12.1Z" fill="#FDFDFD"/>
<path d="M22.3401 2.41999C22.3401 2.41999 22.4701 2.98999 22.5401 3.00999L23.1201 2.80999L22.7801 3.35999L23.3301 3.67999L22.6901 3.74999L22.7801 4.36999C22.7801 4.36999 22.7301 4.34999 22.7101 4.33999C22.6301 4.27999 22.3901 3.94999 22.3301 3.93999C22.2301 3.99999 22.1501 4.09999 22.0701 4.17999C22.0501 4.19999 21.9001 4.40999 21.8601 4.36999L21.9501 3.74999L21.3101 3.67999L21.8601 3.35999L21.5201 2.80999L22.1001 3.00999C22.1501 2.99999 22.2601 2.52999 22.2901 2.44999C22.2901 2.42999 22.3001 2.37999 22.3401 2.41999Z" fill="#FDFDFD"/>
<path d="M26.34 5.95001C26.34 5.95001 26.09 6.35001 26.09 6.39001C26.09 6.47001 26.32 6.74001 26.34 6.84001H25.81L25.58 7.27001C25.58 7.27001 25.34 6.87001 25.29 6.84001H24.8C24.8 6.72001 25.03 6.48001 25.03 6.39001C25.03 6.28001 24.81 6.07001 24.8 5.94001H25.3C25.33 5.89001 25.52 5.51001 25.54 5.51001C25.62 5.51001 25.76 5.89001 25.84 5.94001H26.33L26.34 5.95001Z" fill="#FDFDFD"/>
<path d="M23.8 8.35001C23.8 8.35001 23.88 8.65001 23.94 8.70001C24.02 8.78001 24.25 8.70001 24.35 8.77001C24.31 8.82001 24.07 8.98001 24.06 9.03001C24.03 9.13001 24.15 9.31001 24.13 9.43001C24.11 9.45001 23.83 9.23001 23.79 9.23001C23.75 9.23001 23.46 9.46001 23.44 9.43001C23.42 9.32001 23.53 9.13001 23.51 9.03001C23.49 8.98001 23.25 8.83001 23.22 8.76001C23.32 8.71001 23.54 8.76001 23.62 8.71001C23.67 8.67001 23.73 8.45001 23.77 8.38001C23.77 8.36001 23.77 8.31001 23.82 8.35001H23.8Z" fill="#FDFDFD"/>
<path d="M18.6801 6.23999L18.8601 6.82999L19.4501 6.56999L19.1801 7.14999C19.3601 7.19999 19.5801 7.25999 19.7401 7.32999C19.7601 7.32999 19.8101 7.33999 19.7701 7.37999C19.7501 7.39999 19.2501 7.52999 19.1801 7.55999L19.4301 8.12999L18.8601 7.87999C18.8001 8.03999 18.7601 8.27999 18.6801 8.41999C18.6701 8.43999 18.6601 8.47999 18.6301 8.44999C18.6001 8.41999 18.4701 7.95999 18.4501 7.87999L17.8601 8.13999L18.1301 7.55999C17.9601 7.50999 17.7301 7.44999 17.5701 7.37999C17.5401 7.36999 17.5301 7.38999 17.5401 7.32999L18.1301 7.14999L17.8701 6.55999L18.4501 6.82999C18.5001 6.64999 18.5601 6.42999 18.6301 6.26999C18.6401 6.23999 18.6201 6.22999 18.6801 6.23999Z" fill="#FDFDFD"/>
</g>
<defs>
<clipPath id="clip0_1045_7587">
<rect width="28.38" height="17.55" fill="white" transform="translate(0.180054)"/>
</clipPath>
</defs>
</svg>
