<svg width="30" height="18" viewBox="0 0 30 18" fill="none" xmlns="http://www.w3.org/2000/svg">
<g clip-path="url(#clip0_1045_7582)">
<path d="M29.18 -0.119995H0.800049V17.67H29.18V-0.119995Z" fill="#FF3B45"/>
<path d="M22.1001 -0.119995H7.95007V17.67H22.1001V-0.119995Z" fill="white"/>
<path d="M14.57 11.85V15H15.12V11.76L18.05 12.4L17.68 11.39L20.52 8.74L19.74 8.60001L20.24 6.68L18.6 7L18.23 6.09L16.72 7.6L17.18 4.08L16.13 4.53L14.89 2.38L13.7 4.62L12.52 3.94L13.11 7.6L11.51 5.95L11.37 6.96L9.68005 6.59L10.23 8.42L9.36005 8.74L12.1 11.21L11.69 12.21L14.57 11.85Z" fill="#FF3B45"/>
</g>
<defs>
<clipPath id="clip0_1045_7582">
<rect width="28.38" height="17.55" fill="white" transform="translate(0.800049)"/>
</clipPath>
</defs>
</svg>
