<svg width="29" height="18" viewBox="0 0 29 18" fill="none" xmlns="http://www.w3.org/2000/svg">
<g clip-path="url(#clip0_1045_7402)">
<path d="M26.9701 -0.0899963H1.69006C0.861636 -0.0899963 0.190063 0.581577 0.190063 1.41V16.14C0.190063 16.9684 0.861636 17.64 1.69006 17.64H26.9701C27.7985 17.64 28.4701 16.9684 28.4701 16.14V1.41C28.4701 0.581577 27.7985 -0.0899963 26.9701 -0.0899963Z" fill="#FF3B45"/>
<path d="M5.99997 4.90999L6.76997 7.07999L4.92997 5.71999V5.70999L4.91997 5.71999L3.07997 7.07999L3.84997 4.90999L3.86997 4.88999H3.85997L1.96997 3.60999H4.24997L4.86997 1.42999L5.57997 3.60999V3.61999V3.60999H7.88997L5.98997 4.88999H5.97997L5.99997 4.90999Z" fill="white"/>
<path d="M11.0599 7.12001L11.1899 6.67001L11.3399 7.12001L11.2099 7.53001L11.0599 7.12001Z" fill="white"/>
<path d="M11.34 7.12003H11.81L11.42 7.38003L10.99 7.37003L11.34 7.12003Z" fill="white"/>
<path d="M11.4199 7.38L11.5799 7.82L11.2099 7.55L11.0699 7.13L11.4199 7.38Z" fill="white"/>
<path d="M11.07 7.12003H10.6L10.99 7.38003L11.43 7.37003L11.07 7.12003Z" fill="white"/>
<path d="M10.99 7.38L10.83 7.82L11.2 7.55L11.34 7.13L10.99 7.38Z" fill="white"/>
<path d="M8.93994 9.35999L9.18994 8.95999L9.19994 9.42999L8.95994 9.78999L8.93994 9.35999Z" fill="white"/>
<path d="M9.20004 9.42999L9.66004 9.55999L9.21004 9.69999L8.79004 9.56999L9.20004 9.42999Z" fill="white"/>
<path d="M9.20994 9.69999L9.23994 10.17L8.94994 9.79999L8.93994 9.35999L9.20994 9.69999Z" fill="white"/>
<path d="M8.94999 9.35L8.48999 9.22L8.78999 9.58L9.21999 9.69L8.94999 9.35Z" fill="white"/>
<path d="M8.79001 9.58L8.51001 9.96L8.95001 9.8L9.20001 9.44L8.79001 9.58Z" fill="white"/>
<path d="M11.62 4.37L11.98 4.06L11.86 4.51L11.51 4.79L11.62 4.37Z" fill="white"/>
<path d="M11.86 4.51001L12.25 4.77001L11.78 4.78001L11.42 4.53001L11.86 4.51001Z" fill="white"/>
<path d="M11.78 4.78L11.66 5.24L11.51 4.8L11.62 4.37L11.78 4.78Z" fill="white"/>
<path d="M11.63 4.36001L11.24 4.10001L11.42 4.54001L11.79 4.77001L11.63 4.36001Z" fill="white"/>
<path d="M11.42 4.54L11.04 4.82L11.5 4.79L11.85 4.53L11.42 4.54Z" fill="white"/>
<path d="M10.2999 1.77L10.5499 1.38L10.5599 1.85L10.3099 2.21L10.2999 1.77Z" fill="white"/>
<path d="M10.56 1.85001L11.01 1.98001L10.56 2.12001L10.15 1.99001L10.56 1.85001Z" fill="white"/>
<path d="M10.5599 2.13L10.5899 2.6L10.3099 2.22L10.2999 1.78L10.5599 2.13Z" fill="white"/>
<path d="M10.3 1.77L9.84998 1.63L10.15 1.99L10.57 2.11L10.3 1.77Z" fill="white"/>
<path d="M10.15 2.00002L9.87 2.38002L10.31 2.22002L10.56 1.86002L10.15 2.00002Z" fill="white"/>
</g>
<defs>
<clipPath id="clip0_1045_7402">
<rect width="28.38" height="17.55" fill="white" transform="translate(0.140015)"/>
</clipPath>
</defs>
</svg>
