<svg width="30" height="18" viewBox="0 0 30 18" fill="none" xmlns="http://www.w3.org/2000/svg">
<g clip-path="url(#clip0_1045_7387)">
<path d="M29.2001 -0.140015H0.690063V17.68H29.2001V-0.140015Z" fill="#243F9D"/>
<path d="M15.0101 3.51001L15.1401 3.92001H15.5701C15.6501 3.92001 15.6801 4.02001 15.6201 4.07001L15.2701 4.32001L15.4001 4.73001C15.4201 4.81001 15.3401 4.87001 15.2701 4.82001L14.9201 4.57001L14.5701 4.82001C14.5001 4.87001 14.4201 4.80001 14.4401 4.73001L14.5701 4.32001L14.2201 4.07001C14.1501 4.02001 14.1901 3.92001 14.2701 3.92001H14.7001L14.8301 3.51001C14.8501 3.43001 14.9601 3.43001 14.9901 3.51001H15.0101Z" fill="#F4E41B"/>
<path d="M12.69 4.05002L12.82 4.46002H13.25C13.33 4.46002 13.36 4.56002 13.3 4.61002L12.95 4.86002L13.08 5.27002C13.1 5.35002 13.02 5.41002 12.95 5.36002L12.6 5.11002L12.25 5.36002C12.18 5.41002 12.1 5.34002 12.12 5.27002L12.25 4.86002L11.9 4.61002C11.83 4.56002 11.87 4.46002 11.95 4.46002H12.38L12.51 4.05002C12.53 3.97002 12.64 3.97002 12.67 4.05002H12.69Z" fill="#F4E41B"/>
<path d="M10.98 5.84L11.11 6.25H11.54C11.62 6.25 11.65 6.35 11.59 6.4L11.24 6.65L11.37 7.06C11.39 7.14 11.31 7.2 11.24 7.15L10.89 6.9L10.54 7.15C10.47 7.2 10.39 7.13 10.41 7.06L10.54 6.65L10.19 6.4C10.12 6.35 10.16 6.25 10.24 6.25H10.67L10.8 5.84C10.82 5.76 10.93 5.76 10.96 5.84H10.98Z" fill="#F4E41B"/>
<path d="M10.46 8.12L10.59 8.53H11.02C11.1 8.53 11.13 8.63 11.07 8.68L10.72 8.93L10.85 9.34C10.87 9.42 10.79 9.48 10.72 9.43L10.37 9.18L10.02 9.43C9.95001 9.48 9.87001 9.41 9.89001 9.34L10.02 8.93L9.67001 8.68C9.60001 8.63 9.64001 8.53 9.72001 8.53H10.15L10.28 8.12C10.3 8.04 10.41 8.04 10.44 8.12H10.46Z" fill="#F4E41B"/>
<path d="M11 10.46L11.13 10.87H11.56C11.64 10.87 11.67 10.97 11.61 11.02L11.26 11.27L11.39 11.68C11.41 11.76 11.33 11.82 11.26 11.77L10.91 11.52L10.56 11.77C10.49 11.82 10.41 11.75 10.43 11.68L10.56 11.27L10.21 11.02C10.14 10.97 10.18 10.87 10.26 10.87H10.69L10.82 10.46C10.84 10.38 10.95 10.38 10.98 10.46H11Z" fill="#F4E41B"/>
<path d="M12.69 12.11L12.82 12.52H13.25C13.33 12.52 13.36 12.62 13.3 12.67L12.95 12.92L13.08 13.33C13.1 13.41 13.02 13.47 12.95 13.42L12.6 13.17L12.25 13.42C12.18 13.47 12.1 13.4 12.12 13.33L12.25 12.92L11.9 12.67C11.83 12.62 11.87 12.52 11.95 12.52H12.38L12.51 12.11C12.53 12.03 12.64 12.03 12.67 12.11H12.69Z" fill="#F4E41B"/>
<path d="M15.0101 12.76L15.1401 13.17H15.5701C15.6501 13.17 15.6801 13.27 15.6201 13.32L15.2701 13.57L15.4001 13.98C15.4201 14.06 15.3401 14.12 15.2701 14.07L14.9201 13.82L14.5701 14.07C14.5001 14.12 14.4201 14.05 14.4401 13.98L14.5701 13.57L14.2201 13.32C14.1501 13.27 14.1901 13.17 14.2701 13.17H14.7001L14.8301 12.76C14.8501 12.68 14.9601 12.68 14.9901 12.76H15.0101Z" fill="#F4E41B"/>
<path d="M17.22 12.11L17.35 12.52H17.78C17.86 12.52 17.89 12.62 17.83 12.67L17.48 12.92L17.61 13.33C17.63 13.41 17.55 13.47 17.48 13.42L17.13 13.17L16.78 13.42C16.71 13.47 16.63 13.4 16.65 13.33L16.78 12.92L16.43 12.67C16.36 12.62 16.4 12.52 16.48 12.52H16.91L17.04 12.11C17.06 12.03 17.17 12.03 17.2 12.11H17.22Z" fill="#F4E41B"/>
<path d="M18.97 10.46L19.1 10.87H19.53C19.61 10.87 19.64 10.97 19.58 11.02L19.23 11.27L19.36 11.68C19.38 11.76 19.3 11.82 19.23 11.77L18.88 11.52L18.53 11.77C18.46 11.82 18.38 11.75 18.4 11.68L18.53 11.27L18.18 11.02C18.11 10.97 18.15 10.87 18.23 10.87H18.66L18.79 10.46C18.81 10.38 18.92 10.38 18.95 10.46H18.97Z" fill="#F4E41B"/>
<path d="M19.59 8.15003L19.72 8.56003H20.15C20.23 8.56003 20.26 8.66003 20.2 8.71003L19.85 8.96003L19.98 9.37003C20 9.45003 19.92 9.51003 19.85 9.46003L19.5 9.21003L19.15 9.46003C19.08 9.51003 19 9.44003 19.02 9.37003L19.15 8.96003L18.8 8.71003C18.73 8.66003 18.77 8.56003 18.85 8.56003H19.28L19.41 8.15003C19.43 8.07003 19.54 8.07003 19.57 8.15003H19.59Z" fill="#F4E41B"/>
<path d="M18.98 5.84L19.11 6.25H19.54C19.62 6.25 19.65 6.35 19.59 6.4L19.24 6.65L19.37 7.06C19.39 7.14 19.31 7.2 19.24 7.15L18.89 6.9L18.54 7.15C18.47 7.2 18.39 7.13 18.41 7.06L18.54 6.65L18.19 6.4C18.12 6.35 18.16 6.25 18.24 6.25H18.67L18.8 5.84C18.82 5.76 18.93 5.76 18.96 5.84H18.98Z" fill="#F4E41B"/>
<path d="M17.22 4.14002L17.35 4.55002H17.78C17.86 4.55002 17.89 4.65002 17.83 4.70002L17.48 4.95002L17.61 5.36002C17.63 5.44002 17.55 5.50002 17.48 5.45002L17.13 5.20002L16.78 5.45002C16.71 5.50002 16.63 5.43002 16.65 5.36002L16.78 4.95002L16.43 4.70002C16.36 4.65002 16.4 4.55002 16.48 4.55002H16.91L17.04 4.14002C17.06 4.06002 17.17 4.06002 17.2 4.14002H17.22Z" fill="#F4E41B"/>
</g>
<defs>
<clipPath id="clip0_1045_7387">
<rect width="28.38" height="17.55" fill="white" transform="translate(0.76001)"/>
</clipPath>
</defs>
</svg>
