<svg width="29" height="18" viewBox="0 0 29 18" fill="none" xmlns="http://www.w3.org/2000/svg">
<g clip-path="url(#clip0_1045_7571)">
<path d="M28.94 -0.0599976V17.9H28.93H0.280029V-0.0599976H28.94Z" fill="#264A9B"/>
<path d="M28.94 16.03V17.9H28.93H25.95L17.16 12.39L16.28 11.84L15.24 11.18L14.89 10.96L13.83 10.3L13.44 10.05L13.11 9.84999L12.44 9.42999L12.23 9.29999L11.9 9.09999L8.78003 7.12999L7.38003 6.24999L0.280029 1.80999V-0.0600061L0.310029 -0.100006L0.360029 -0.0600061H3.27003L12.23 5.54999L13.11 6.10999L13.34 6.24999L14.75 7.12999L14.89 7.21999L15.43 7.55999L16.28 8.08999L16.42 8.18999L17.16 8.64999L17.88 9.09999L19.8 10.3L21.21 11.18L28.94 16.03Z" fill="#FCF5FF"/>
<path d="M28.94 17.85L28.95 17.91L27.03 17.9L17.16 11.71L16.32 11.18L16.28 11.16L15.43 10.63L14.91 10.3L13.98 9.71999L13.11 9.16999L12.99 9.09999L12.44 8.74999L12.23 8.61999L9.86003 7.12999L8.46003 6.24999L0.280029 1.12999V-0.100006H0.310029L0.360029 -0.0600061L10.44 6.24999L11.85 7.12999L12.23 7.36999L13.11 7.92999L13.44 8.13999L13.98 8.46999L14.97 9.09999L16.28 9.90999L16.42 10.01L16.9 10.3L17.16 10.47L18.3 11.18L28.94 17.85Z" fill="#FF3B45"/>
<path d="M28.94 0.290002V2.16L22.4 6.25L21 7.13L17.88 9.1L17.16 9.54L16.42 10.01L16.28 10.1L15.95 10.3L15.43 10.63L14.89 10.96L14.54 11.18L13.11 12.08L12.23 12.63L3.83003 17.9H0.280029V16.38L8.57003 11.18L9.98003 10.3L11.9 9.1L12.23 8.89L12.44 8.75L13.11 8.34L13.44 8.14L14.89 7.22L15.03 7.13L16.28 6.35L16.44 6.25L17.16 5.8L26.51 -0.0599976H28.71L28.94 0.290002Z" fill="#FCF5FF"/>
<path d="M28.86 0.380002L19.5 6.25L18.09 7.13L17.16 7.72L16.42 8.19L16.28 8.28L14.97 9.1L13.98 9.72L13.44 10.05L13.11 10.26L13.04 10.3L12.23 10.81L11.64 11.18L0.930029 17.9H0.280029V17.06L9.65003 11.18L11.06 10.3L12.23 9.57L12.44 9.43L12.99 9.1L13.11 9.01L13.98 8.47L15.43 7.56L16.11 7.13L16.28 7.03L17.16 6.48L17.51 6.25L27.59 -0.0599976H28.58H28.94V0.330002L28.86 0.380002Z" fill="#FF3B45"/>
<path d="M28.9501 6.25H0.260071V11.18H28.9501V6.25Z" fill="white"/>
<path d="M28.9501 7.13H0.260071V10.3H28.9501V7.13Z" fill="#FF3B45"/>
<path d="M16.28 -0.0599976H13.11V17.9H16.28V-0.0599976Z" fill="#CD002A"/>
<path d="M16.27 11.18H17.15V17.9H12.22V11.18H13.1V6.25H12.22V-0.0599976H17.15V6.25H16.27V11.18Z" fill="white"/>
<path d="M16.28 -0.0599976H13.08V17.9H16.28V-0.0599976Z" fill="#FF3B45"/>
</g>
<defs>
<clipPath id="clip0_1045_7571">
<rect width="28.38" height="17.55" fill="white" transform="translate(0.420044)"/>
</clipPath>
</defs>
</svg>
