<svg width="29" height="18" viewBox="0 0 29 18" fill="none" xmlns="http://www.w3.org/2000/svg">
<g clip-path="url(#clip0_1045_7430)">
<path d="M29.01 -0.200012H0.410034V17.75H29.01V-0.200012Z" fill="#FF3B45"/>
<path d="M14.5901 8.44999C14.6501 7.84999 15.0801 7.24999 15.6001 6.93999C17.0101 6.08999 18.9101 6.89999 19.2701 8.48999C19.2501 8.50999 18.9601 8.30999 18.8801 8.29999C18.1501 8.14999 18.0001 8.96999 17.2301 9.01999C16.3401 9.07999 16.2301 8.39999 15.5701 8.29999C15.3501 8.26999 15.1601 8.29999 14.9601 8.38999C14.8701 8.43999 14.7301 8.62999 14.6301 8.52999C14.9501 8.20999 15.4201 7.63999 15.9401 7.63999H16.5501C16.5501 7.63999 16.8801 7.73999 16.7301 7.59999C16.7301 7.59999 16.5801 7.56999 16.5401 7.55999C15.7301 7.45999 15.0501 7.78999 14.5901 8.43999V8.44999Z" fill="#FEFCFB"/>
<path d="M14.8801 8.9C15.0101 8.78 15.7101 8.89 15.9101 8.94C17.3001 9.33 17.8901 10.98 17.3401 12.26C17.1601 12.67 16.7901 13.16 16.3801 13.34C16.4301 13.08 16.4701 12.83 16.3401 12.59C16.0901 12.12 15.4901 12.23 15.2501 11.54C14.9601 10.72 15.4801 10.51 15.4401 9.9C15.4201 9.54 15.1501 9.06 14.7601 9.02C14.7401 8.95 14.8301 8.99 14.8401 8.98C15.6301 9.12 16.1301 9.67 16.3201 10.43C16.3401 10.53 16.2901 10.71 16.4201 10.67C16.4201 9.81 15.7301 9.04 14.8901 8.89L14.8801 8.9Z" fill="#FEFCFB"/>
<path d="M13.5401 9.37997C13.7601 9.35997 13.9301 9.25997 14.1501 9.21997C12.3401 10.95 9.67005 9.09997 10.2101 6.75997L10.3501 6.43997C10.3701 6.71997 10.5901 7.03997 10.8701 7.10997C11.3701 7.23997 11.6901 6.91997 12.2601 7.25997C13.0101 7.69997 12.7401 8.33997 13.1801 8.80997C13.4201 9.05997 13.7701 9.14997 14.1101 9.10997C14.0201 9.25997 13.7101 9.29997 13.5501 9.30997C12.8701 9.35997 12.5101 9.12997 12.0201 8.71997C11.9901 8.68997 11.9401 8.60997 11.9001 8.67997C12.2401 9.19997 12.9501 9.43997 13.5601 9.38997L13.5401 9.37997Z" fill="#FEFCFB"/>
<path d="M14.5501 9.29999C14.6301 9.99999 14.3301 10.67 13.7601 11.07C13.6701 11.13 13.4001 11.18 13.4401 11.32C14.2401 11.03 14.7701 10.14 14.6301 9.29999C14.7201 9.33999 14.8301 9.75999 14.8501 9.85999C15.3101 12.14 12.4901 13.58 10.8301 12.08C11.0801 12.1 11.3601 12.05 11.5401 11.86C11.9301 11.47 11.6301 10.91 12.2401 10.45C12.9501 9.90999 13.7801 10.54 14.3101 9.77999C14.3901 9.66999 14.4801 9.31999 14.5301 9.29999H14.5501Z" fill="#FEFCFB"/>
<path d="M14.63 9.29999C14.77 10.14 14.24 11.03 13.44 11.32C13.39 11.18 13.67 11.13 13.76 11.07C14.33 10.67 14.63 9.99999 14.55 9.29999C14.55 9.29999 14.62 9.29999 14.63 9.29999Z" fill="#E24934"/>
<path d="M14.1101 8.68999C13.6201 8.24999 13.5201 7.52999 13.6801 6.90999C13.7101 6.79999 13.7901 6.51999 13.8701 6.44999C14.0401 6.29999 13.8501 6.66999 13.8401 6.69999C13.6001 7.39999 13.6701 8.06999 14.1501 8.64999C14.1301 8.64999 14.1201 8.68999 14.1101 8.68999Z" fill="#E24934"/>
<path d="M14.8801 8.89999C15.7201 9.03999 16.4101 9.80999 16.4101 10.68C16.2801 10.71 16.3401 10.53 16.3101 10.44C16.1201 9.67999 15.6301 9.12999 14.8301 8.98999C14.8301 8.98999 14.8401 8.93999 14.8701 8.90999L14.8801 8.89999Z" fill="#E24934"/>
<path d="M14.59 8.44999C15.05 7.79999 15.74 7.46999 16.54 7.56999C16.57 7.56999 16.72 7.59999 16.73 7.60999C16.87 7.74999 16.56 7.64999 16.55 7.64999H15.94C15.41 7.64999 14.95 8.21999 14.63 8.53999C14.59 8.57999 14.6 8.62999 14.55 8.61999C14.55 8.55999 14.58 8.50999 14.59 8.45999V8.44999Z" fill="#E24934"/>
<path d="M14.6301 8.69998L14.5501 8.77998C14.5401 8.69998 14.5501 8.68998 14.6301 8.69998Z" fill="#E24934"/>
<path d="M14.1101 8.68999C14.1101 8.68999 14.1101 8.71999 14.0901 8.71999C13.9101 8.71999 13.3801 8.17999 13.2701 8.01999C12.0901 6.30999 13.5901 4.08999 15.5601 4.20999C15.5801 4.29999 15.5401 4.27999 15.5101 4.29999C15.2901 4.46999 15.1501 4.56999 15.1201 4.86999C15.0601 5.46999 15.6101 5.63999 15.3701 6.41999C15.1301 7.19999 14.4801 7.12999 14.2101 7.67999C14.0601 7.98999 14.0601 8.35999 14.2301 8.66999C14.2101 8.70999 14.1701 8.64999 14.1501 8.64999C13.6601 8.06999 13.6001 7.40999 13.8401 6.69999C13.8401 6.66999 14.0401 6.29999 13.8701 6.44999C13.7901 6.50999 13.7101 6.79999 13.6801 6.90999C13.5201 7.52999 13.6201 8.24999 14.1101 8.68999Z" fill="#FEFCFB"/>
<path d="M13.54 9.29999V9.37999C12.94 9.43999 12.23 9.18999 11.88 8.66999C11.92 8.59999 11.97 8.67999 12 8.70999C12.49 9.11999 12.85 9.33999 13.53 9.29999H13.54Z" fill="#E24934"/>
</g>
<defs>
<clipPath id="clip0_1045_7430">
<rect width="28.38" height="17.55" fill="white" transform="translate(0.52002)"/>
</clipPath>
</defs>
</svg>
