<svg width="29" height="18" viewBox="0 0 29 18" fill="none" xmlns="http://www.w3.org/2000/svg">
<g clip-path="url(#clip0_1045_7384)">
<path d="M27.2101 -0.100006H1.93005C1.10163 -0.100006 0.430054 0.571567 0.430054 1.39999V16.15C0.430054 16.9784 1.10163 17.65 1.93005 17.65H27.2101C28.0385 17.65 28.7101 16.9784 28.7101 16.15V1.39999C28.7101 0.571567 28.0385 -0.100006 27.2101 -0.100006Z" fill="white"/>
<path d="M19.18 7.85C19.81 11.16 16.96 14.01 13.65 13.38C11.8 13.03 10.31 11.54 9.95999 9.69C9.32999 6.38 12.18 3.53 15.49 4.16C17.34 4.51 18.83 6 19.18 7.85Z" fill="#FF3B45"/>
</g>
<defs>
<clipPath id="clip0_1045_7384">
<rect width="28.38" height="17.55" fill="white" transform="translate(0.380005)"/>
</clipPath>
</defs>
</svg>
