<svg width="29" height="18" viewBox="0 0 29 18" fill="none" xmlns="http://www.w3.org/2000/svg">
<g clip-path="url(#clip0_1045_7488)">
<path d="M28.42 5.44H0.0400391V6.79H28.42V5.44Z" fill="#FF3B45"/>
<path d="M28.42 2.73999H0.0400391V4.08999H28.42V2.73999Z" fill="#FF3B45"/>
<path d="M28.42 0.0499878H0.0400391V1.39999H28.42V0.0499878Z" fill="#FF3B45"/>
<path d="M28.42 8.13998H0.0400391V9.48998H28.42V8.13998Z" fill="#FF3B45"/>
<path d="M28.42 10.84H0.0400391V12.19H28.42V10.84Z" fill="#FF3B45"/>
<path d="M28.42 13.54H0.0400391V14.89H28.42V13.54Z" fill="#FF3B45"/>
<path d="M28.42 16.24H0.0400391V17.59H28.42V16.24Z" fill="#FF3B45"/>
<path d="M28.42 4.09H0.0400391V5.44H28.42V4.09Z" fill="white"/>
<path d="M28.42 1.39999H0.0400391V2.74999H28.42V1.39999Z" fill="white"/>
<path d="M28.42 6.79999H0.0400391V8.14999H28.42V6.79999Z" fill="white"/>
<path d="M28.42 9.48999H0.0400391V10.84H28.42V9.48999Z" fill="white"/>
<path d="M28.42 12.19H0.0400391V13.54H28.42V12.19Z" fill="white"/>
<path d="M28.42 14.89H0.0400391V16.24H28.42V14.89Z" fill="white"/>
<path d="M10.65 0.0899963H0.0400391V8.26H10.65V0.0899963Z" fill="#2E4593"/>
<path d="M8.91007 1.70999L9.02007 2.02999L8.75007 1.82999L8.48007 2.02999L8.59007 1.70999H8.60007L8.32007 1.51999H8.65007L8.74007 1.20999L8.85007 1.51999H9.18007L8.91007 1.70999H8.90007H8.91007Z" fill="white"/>
<path d="M8.91007 3.35999L9.02007 3.67999L8.75007 3.47999L8.48007 3.67999L8.59007 3.35999H8.60007L8.32007 3.16999H8.65007L8.74007 2.85999L8.85007 3.16999V3.17999V3.16999H9.18007L8.91007 3.35999H8.90007H8.91007Z" fill="white"/>
<path d="M8.91007 5.00998L9.02007 5.32998L8.75007 5.12998L8.48007 5.32998L8.59007 5.00998H8.60007L8.32007 4.82998H8.65007L8.74007 4.50998L8.85007 4.82998H9.18007L8.91007 5.00998H8.90007H8.91007Z" fill="white"/>
<path d="M8.91007 6.66L9.02007 6.98L8.75007 6.78L8.48007 6.98L8.59007 6.66H8.60007L8.32007 6.48H8.65007L8.74007 6.16L8.85007 6.48H9.18007L8.91007 6.66H8.90007H8.91007Z" fill="white"/>
<path d="M7.15007 1.70999L7.27007 2.02999L7.00007 1.82999L6.73007 2.02999L6.84007 1.70999L6.57007 1.51999H6.90007L6.99007 1.20999L7.09007 1.51999H7.43007L7.15007 1.70999Z" fill="white"/>
<path d="M7.15007 3.35999L7.27007 3.67999L7.00007 3.47999L6.73007 3.67999L6.84007 3.35999L6.57007 3.16999H6.90007L6.99007 2.85999L7.09007 3.16999V3.17999V3.16999H7.43007L7.15007 3.35999Z" fill="white"/>
<path d="M7.15007 5.00998L7.27007 5.32998L7.00007 5.12998L6.73007 5.32998L6.84007 5.00998L6.57007 4.82998H6.90007L6.99007 4.50998L7.09007 4.82998H7.43007L7.15007 5.00998Z" fill="white"/>
<path d="M7.15007 6.66L7.27007 6.98L7.00007 6.78L6.73007 6.98L6.84007 6.66L6.57007 6.48H6.90007L6.99007 6.16L7.09007 6.48H7.43007L7.15007 6.66Z" fill="white"/>
<path d="M5.40006 1.70999L5.51006 2.02999L5.24006 1.82999L4.97006 2.02999L5.08006 1.70999H5.09006L4.81006 1.51999H5.14006L5.23006 1.20999L5.34006 1.51999H5.67006L5.40006 1.70999H5.39006H5.40006Z" fill="white"/>
<path d="M5.40006 3.35999L5.51006 3.67999L5.24006 3.47999L4.97006 3.67999L5.08006 3.35999H5.09006L4.81006 3.16999H5.14006L5.23006 2.85999L5.34006 3.16999V3.17999V3.16999H5.67006L5.40006 3.35999H5.39006H5.40006Z" fill="white"/>
<path d="M5.40006 5.00998L5.51006 5.32998L5.24006 5.12998L4.97006 5.32998L5.08006 5.00998H5.09006L4.81006 4.82998H5.14006L5.23006 4.50998L5.34006 4.82998H5.67006L5.40006 5.00998H5.39006H5.40006Z" fill="white"/>
<path d="M5.40006 6.66L5.51006 6.98L5.24006 6.78L4.97006 6.98L5.08006 6.66H5.09006L4.81006 6.48H5.14006L5.23006 6.16L5.34006 6.48H5.67006L5.40006 6.66H5.39006H5.40006Z" fill="white"/>
<path d="M3.67002 1.70999L3.78002 2.02999L3.51002 1.82999L3.25002 2.02999L3.36002 1.70999L3.08002 1.51999H3.42002L3.51002 1.20999L3.61002 1.51999H3.95002L3.67002 1.70999Z" fill="white"/>
<path d="M3.67002 3.35999L3.78002 3.67999L3.51002 3.47999L3.25002 3.67999L3.36002 3.35999L3.08002 3.16999H3.42002L3.51002 2.85999L3.61002 3.16999V3.17999V3.16999H3.95002L3.67002 3.35999Z" fill="white"/>
<path d="M3.67002 5.00998L3.78002 5.32998L3.51002 5.12998L3.25002 5.32998L3.36002 5.00998L3.08002 4.82998H3.42002L3.51002 4.50998L3.61002 4.82998H3.95002L3.67002 5.00998Z" fill="white"/>
<path d="M3.67002 6.66L3.78002 6.98L3.51002 6.78L3.25002 6.98L3.36002 6.66L3.08002 6.48H3.42002L3.51002 6.16L3.61002 6.48H3.95002L3.67002 6.66Z" fill="white"/>
<path d="M1.94005 1.70999L2.06005 2.02999L1.79005 1.82999L1.52005 2.02999L1.63005 1.70999L1.36005 1.51999H1.69005L1.78005 1.20999L1.88005 1.51999H2.22005L1.94005 1.70999Z" fill="white"/>
<path d="M1.94005 3.35999L2.06005 3.67999L1.79005 3.47999L1.52005 3.67999L1.63005 3.35999L1.36005 3.16999H1.69005L1.78005 2.85999L1.88005 3.16999V3.17999V3.16999H2.22005L1.94005 3.35999Z" fill="white"/>
<path d="M1.94005 5.00998L2.06005 5.32998L1.79005 5.12998L1.52005 5.32998L1.63005 5.00998L1.36005 4.82998H1.69005L1.78005 4.50998L1.88005 4.82998H2.22005L1.94005 5.00998Z" fill="white"/>
<path d="M1.94005 6.66L2.06005 6.98L1.79005 6.78L1.52005 6.98L1.63005 6.66L1.36005 6.48H1.69005L1.78005 6.16L1.88005 6.48H2.22005L1.94005 6.66Z" fill="white"/>
<path d="M9.76004 2.54L9.87004 2.85L9.60004 2.65L9.33004 2.85L9.45004 2.54V2.53L9.17004 2.35H9.50004L9.59004 2.03L9.70004 2.35H10.03L9.76004 2.53V2.54Z" fill="white"/>
<path d="M9.76004 4.18999L9.87004 4.49999L9.60004 4.29999L9.33004 4.49999L9.45004 4.18999V4.17999L9.17004 3.99999H9.50004L9.59004 3.67999L9.70004 3.99999H10.03L9.76004 4.17999V4.18999Z" fill="white"/>
<path d="M9.76004 5.83999L9.87004 6.15999L9.60004 5.95999L9.33004 6.15999L9.45004 5.83999L9.17004 5.64999H9.50004L9.59004 5.32999L9.70004 5.64999H10.03L9.76004 5.83999Z" fill="white"/>
<path d="M9.76004 7.48999L9.87004 7.80999L9.60004 7.60999L9.33004 7.80999L9.45004 7.48999L9.17004 7.29999H9.50004L9.59004 6.98999L9.70004 7.29999V7.30999V7.29999H10.03L9.76004 7.48999Z" fill="white"/>
<path d="M9.76004 0.889984L9.87004 1.20998L9.60004 1.00998L9.33004 1.20998L9.45004 0.889984L9.17004 0.699984H9.50004L9.59004 0.389984L9.70004 0.699984V0.709984V0.699984H10.03L9.76004 0.889984Z" fill="white"/>
<path d="M8.04001 2.54L8.16001 2.85L7.89001 2.65L7.62001 2.85L7.73001 2.54V2.53L7.45001 2.35H7.79001L7.88001 2.03L7.98001 2.35H8.32001L8.04001 2.53V2.54Z" fill="white"/>
<path d="M8.04001 4.18999L8.16001 4.49999L7.89001 4.29999L7.62001 4.49999L7.73001 4.18999V4.17999L7.45001 3.99999H7.79001L7.88001 3.67999L7.98001 3.99999H8.32001L8.04001 4.17999V4.18999Z" fill="white"/>
<path d="M8.04001 5.83999L8.16001 6.15999L7.89001 5.95999L7.62001 6.15999L7.73001 5.83999L7.45001 5.64999H7.79001L7.88001 5.32999L7.98001 5.64999H8.32001L8.04001 5.83999Z" fill="white"/>
<path d="M8.04001 7.48999L8.16001 7.80999L7.89001 7.60999L7.62001 7.80999L7.73001 7.48999L7.45001 7.29999H7.79001L7.88001 6.98999L7.98001 7.29999V7.30999V7.29999H8.32001L8.04001 7.48999Z" fill="white"/>
<path d="M8.04001 0.889984L8.16001 1.20998L7.89001 1.00998L7.62001 1.20998L7.73001 0.889984L7.45001 0.699984H7.79001L7.88001 0.389984L7.98001 0.699984V0.709984V0.699984H8.32001L8.04001 0.889984Z" fill="white"/>
<path d="M6.26004 2.54L6.37004 2.85L6.10004 2.65L5.83004 2.85L5.95004 2.54V2.53L5.67004 2.35H6.00004L6.09004 2.03L6.20004 2.35H6.53004L6.26004 2.53H6.25004L6.26004 2.54Z" fill="white"/>
<path d="M6.26004 4.18999L6.37004 4.49999L6.10004 4.29999L5.83004 4.49999L5.95004 4.18999V4.17999L5.67004 3.99999H6.00004L6.09004 3.67999L6.20004 3.99999H6.53004L6.26004 4.17999H6.25004L6.26004 4.18999Z" fill="white"/>
<path d="M6.26004 5.83999L6.37004 6.15999L6.10004 5.95999L5.83004 6.15999L5.95004 5.83999L5.67004 5.64999H6.00004L6.09004 5.32999L6.20004 5.64999H6.53004L6.26004 5.83999H6.25004H6.26004Z" fill="white"/>
<path d="M6.26004 7.48999L6.37004 7.80999L6.10004 7.60999L5.83004 7.80999L5.95004 7.48999L5.67004 7.29999H6.00004L6.09004 6.98999L6.20004 7.29999V7.30999V7.29999H6.53004L6.26004 7.48999H6.25004H6.26004Z" fill="white"/>
<path d="M6.26004 0.889984L6.37004 1.20998L6.10004 1.00998L5.83004 1.20998L5.95004 0.889984L5.67004 0.699984H6.00004L6.09004 0.389984L6.20004 0.699984V0.709984V0.699984H6.53004L6.26004 0.889984H6.25004H6.26004Z" fill="white"/>
<path d="M4.51005 2.54L4.62005 2.85L4.36005 2.65L4.09005 2.85L4.20005 2.54V2.53L3.93005 2.35H4.26005L4.35005 2.03L4.45005 2.35H4.79005L4.51005 2.53V2.54Z" fill="white"/>
<path d="M4.51005 4.18999L4.62005 4.49999L4.36005 4.29999L4.09005 4.49999L4.20005 4.18999V4.17999L3.93005 3.99999H4.26005L4.35005 3.67999L4.45005 3.99999H4.79005L4.51005 4.17999V4.18999Z" fill="white"/>
<path d="M4.51005 5.83999L4.62005 6.15999L4.36005 5.95999L4.09005 6.15999L4.20005 5.83999L3.93005 5.64999H4.26005L4.35005 5.32999L4.45005 5.64999H4.79005L4.51005 5.83999Z" fill="white"/>
<path d="M4.51005 7.48999L4.62005 7.80999L4.36005 7.60999L4.09005 7.80999L4.20005 7.48999L3.93005 7.29999H4.26005L4.35005 6.98999L4.45005 7.29999V7.30999V7.29999H4.79005L4.51005 7.48999Z" fill="white"/>
<path d="M4.51005 0.889984L4.62005 1.20998L4.36005 1.00998L4.09005 1.20998L4.20005 0.889984L3.93005 0.699984H4.26005L4.35005 0.389984L4.45005 0.699984V0.709984V0.699984H4.79005L4.51005 0.889984Z" fill="white"/>
<path d="M2.80003 2.54L2.92003 2.85L2.65003 2.65L2.38003 2.85L2.49003 2.54V2.53L2.22003 2.35H2.55003L2.64003 2.03L2.74003 2.35H3.08003L2.80003 2.53V2.54Z" fill="white"/>
<path d="M2.80003 4.18999L2.92003 4.49999L2.65003 4.29999L2.38003 4.49999L2.49003 4.18999V4.17999L2.22003 3.99999H2.55003L2.64003 3.67999L2.74003 3.99999H3.08003L2.80003 4.17999V4.18999Z" fill="white"/>
<path d="M2.80003 5.83999L2.92003 6.15999L2.65003 5.95999L2.38003 6.15999L2.49003 5.83999L2.22003 5.64999H2.55003L2.64003 5.32999L2.74003 5.64999H3.08003L2.80003 5.83999Z" fill="white"/>
<path d="M2.80003 7.48999L2.92003 7.80999L2.65003 7.60999L2.38003 7.80999L2.49003 7.48999L2.22003 7.29999H2.55003L2.64003 6.98999L2.74003 7.29999V7.30999V7.29999H3.08003L2.80003 7.48999Z" fill="white"/>
<path d="M2.80003 0.889984L2.92003 1.20998L2.65003 1.00998L2.38003 1.20998L2.49003 0.889984L2.22003 0.699984H2.55003L2.64003 0.389984L2.74003 0.699984V0.709984V0.699984H3.08003L2.80003 0.889984Z" fill="white"/>
<path d="M1.07004 2.54L1.18004 2.85L0.910042 2.65L0.640042 2.85L0.750041 2.54L0.760042 2.53L0.480042 2.35H0.810041L0.900042 2.03L1.00004 2.35H1.34004L1.06004 2.53L1.07004 2.54Z" fill="white"/>
<path d="M1.07004 4.18999L1.18004 4.49999L0.910042 4.29999L0.640042 4.49999L0.750041 4.18999L0.760042 4.17999L0.480042 3.99999H0.810041L0.900042 3.67999L1.00004 3.99999H1.34004L1.06004 4.17999L1.07004 4.18999Z" fill="white"/>
<path d="M1.07004 5.83999L1.18004 6.15999L0.910042 5.95999L0.640042 6.15999L0.750041 5.83999H0.760042L0.480042 5.64999H0.810041L0.900042 5.32999L1.00004 5.64999H1.34004L1.06004 5.83999H1.07004Z" fill="white"/>
<path d="M1.07004 7.48999L1.18004 7.80999L0.910042 7.60999L0.640042 7.80999L0.750041 7.48999H0.760042L0.480042 7.29999H0.810041L0.900042 6.98999L1.00004 7.29999V7.30999V7.29999H1.34004L1.06004 7.48999H1.07004Z" fill="white"/>
<path d="M1.07004 0.889984L1.18004 1.20998L0.910042 1.00998L0.640042 1.20998L0.750041 0.889984H0.760042L0.480042 0.699984H0.810041L0.900042 0.389984L1.00004 0.699984V0.709984V0.699984H1.34004L1.06004 0.889984H1.07004Z" fill="white"/>
<path d="M12.34 -0.0400085V8.25999H0.0400391V-0.0400085H12.34ZM6.66004 1.50999C4.76004 0.199991 2.05004 1.53999 1.87004 3.81999C1.67004 6.41999 4.50004 8.13999 6.68004 6.69999C5.35004 7.16999 3.88004 6.64999 3.22004 5.39999C2.33004 3.70999 3.41004 1.61999 5.30004 1.36999C5.78004 1.30999 6.20004 1.37999 6.66004 1.50999ZM8.11004 1.64999C8.04004 1.62999 8.05004 1.71999 8.04004 1.76999C7.96004 2.18999 7.92004 2.62999 7.86004 3.05999L6.96004 1.84999L7.41004 3.27999L6.16004 2.57999L7.13004 3.66999C6.68004 3.62999 6.23004 3.57999 5.79004 3.54999C5.75004 3.54999 5.63004 3.52999 5.61004 3.56999L7.01004 4.12999L5.58004 4.66999L7.13004 4.55999L6.09004 5.66999L7.42004 4.91999L6.96004 6.36999L7.86004 5.15999L8.07004 6.63999L8.30004 5.15999L9.17004 6.36999L8.73004 4.93999L10.04 5.64999L9.02004 4.54999L10.57 4.65999L9.14004 4.09999L10.54 3.52999L9.02004 3.64999L10.06 2.51999L8.74004 3.25999L9.16004 1.82999L8.29004 3.03999L8.10004 1.63999L8.11004 1.64999ZM6.11004 2.51999C6.11004 2.51999 6.12004 2.54999 6.13004 2.56999C6.15004 2.54999 6.12004 2.53999 6.11004 2.51999Z" fill="#2E4593"/>
<path d="M6.66001 1.51C6.20001 1.38 5.78001 1.3 5.30001 1.37C3.42001 1.62 2.33001 3.71 3.22001 5.4C3.88001 6.65 5.36001 7.18 6.68001 6.7C4.50001 8.14 1.66001 6.43 1.87001 3.82C2.05001 1.53 4.76001 0.19 6.66001 1.51Z" fill="#FFDE76"/>
<path d="M8.11003 1.64999L8.30003 3.04999L9.17003 1.83999L8.75003 3.26999L10.07 2.52999L9.03003 3.65999L10.55 3.53999L9.15003 4.10999L10.58 4.66999L9.03003 4.55999L10.05 5.65999L8.74003 4.94999L9.18003 6.37999L8.31003 5.16999L8.08003 6.64999L7.87003 5.16999L6.97003 6.37999L7.43003 4.92999L6.10003 5.67999L7.14003 4.56999L5.59003 4.67999L7.02003 4.13999L5.62003 3.57999C5.62003 3.57999 5.76003 3.54999 5.80003 3.55999C6.25003 3.58999 6.70003 3.63999 7.14003 3.67999L6.17003 2.58999L7.42003 3.28999L6.97003 1.85999L7.87003 3.06999C7.93003 2.63999 7.96003 2.19999 8.05003 1.77999C8.05003 1.72999 8.05003 1.63999 8.12003 1.65999L8.11003 1.64999Z" fill="#FFDE76"/>
<path d="M6.11002 2.51999C6.11002 2.51999 6.16002 2.54999 6.13002 2.56999C6.12002 2.55999 6.08002 2.53999 6.11002 2.51999Z" fill="#FAC802"/>
</g>
<defs>
<clipPath id="clip0_1045_7488">
<rect width="28.38" height="17.55" fill="white" transform="translate(0.0400391)"/>
</clipPath>
</defs>
</svg>
