<svg width="29" height="18" viewBox="0 0 29 18" fill="none" xmlns="http://www.w3.org/2000/svg">
<g clip-path="url(#clip0_1045_7605)">
<path d="M29.25 -0.130005H0.480042V17.85H29.25V-0.130005Z" fill="#264A9B"/>
<path d="M19.69 7.45999L20.1 8.60998L19.12 7.88999V7.87999V7.88999L18.14 8.60998L18.55 7.45999L18.56 7.44999H18.55L17.55 6.76999H18.76L19.09 5.60999L19.47 6.76999H19.46H19.47H20.69L19.68 7.44999L19.69 7.45999Z" fill="#FF3B45"/>
<path d="M20.2401 8.8L19.1201 7.97L18.0001 8.8L18.4701 7.48L17.3201 6.7H18.7001L19.0801 5.38L19.5101 6.7H20.9101L19.7601 7.47L20.2301 8.79L20.2401 8.8ZM18.6101 7.5L18.2801 8.42L19.0601 7.84L19.1001 7.62L19.1801 7.84L19.9601 8.42L19.6301 7.5L19.4601 7.39H19.6601L20.4701 6.84H19.4801L19.3001 6.92L19.3901 6.76L19.0901 5.84L18.8001 6.84H17.7601L18.5701 7.38H18.7801L18.6001 7.5H18.6101Z" fill="white"/>
<path d="M23.05 4.1L23.46 5.25L22.48 4.53V4.52V4.53L21.5 5.25L21.91 4.1L21.92 4.09L20.91 3.41H22.12L22.45 2.25L22.83 3.41H24.05L23.04 4.09L23.05 4.1Z" fill="#FF3B45"/>
<path d="M23.6001 5.44L22.4801 4.61L21.3601 5.44L21.8301 4.12L20.6801 3.35H22.0601L22.4401 2.03L22.8701 3.36H24.2701L23.1201 4.13L23.5901 5.45L23.6001 5.44ZM21.9701 4.14L21.6401 5.06L22.4201 4.48L22.4801 4.26L22.5401 4.48L23.3201 5.06L22.9901 4.14L22.8301 4.03H23.0201L23.8301 3.48H22.8401L22.7101 3.55L22.7501 3.41L22.4501 2.48L22.1601 3.48H21.1201L21.9301 4.02H22.1401L21.9601 4.14H21.9701Z" fill="white"/>
<path d="M23.1701 14.81L23.6601 16.2L22.4801 15.33V15.32V15.33L21.3001 16.2L21.7901 14.81L21.8101 14.8H21.8001L20.5901 13.98H22.0501L22.4501 12.58L22.9001 13.98H24.3801L23.1601 14.8L23.1701 14.81Z" fill="#FF3B45"/>
<path d="M23.8 16.39L22.48 15.41L21.16 16.39L21.71 14.83L20.36 13.92H21.99L22.44 12.36L22.95 13.92H24.6L23.25 14.83L23.81 16.39H23.8ZM21.85 14.85L21.44 16.01L22.42 15.28L22.47 15.11L22.54 15.27L23.53 16L23.12 14.84L22.97 14.73H23.15L24.17 14.04H22.93L22.8 14.1L22.84 13.97L22.46 12.8L22.11 14.04H20.82L21.83 14.72H22.03L21.86 14.84L21.85 14.85Z" fill="white"/>
<path d="M26.3901 7.44L26.8001 8.6L25.8201 7.87L24.8401 8.6L25.2501 7.44L25.2601 7.43L24.2501 6.75H25.4601L25.7901 5.59L26.1701 6.75V6.76V6.75H27.3901L26.3801 7.43L26.3901 7.44Z" fill="#FF3B45"/>
<path d="M24.7001 8.77999L25.1701 7.46L24.0201 6.69H25.4001L25.7801 5.37L26.2101 6.7H27.6101L26.4601 7.47L26.9301 8.79L25.8101 7.96L24.6901 8.79L24.7001 8.77999ZM25.8801 7.83L26.6601 8.41L26.3301 7.49L26.1401 7.38H26.3501L27.1601 6.83H26.1701L25.9801 6.94L26.0801 6.76L25.7801 5.84L25.5001 6.84H24.4601L25.2701 7.38H25.4801L25.3001 7.5L24.9701 8.42L25.7601 7.84L25.8401 7.68L25.8801 7.85V7.83Z" fill="white"/>
<path d="M14.6801 -0.0799866V8.80001H0.520081V-0.0799866H14.6801Z" fill="#264A9B"/>
<path d="M14.6801 7.88V8.8H13.2101L8.86008 6.08L8.42008 5.8L7.91008 5.48L7.74008 5.37L7.22008 5.05L7.02008 4.92L6.86008 4.82L6.53008 4.62L6.42008 4.55L6.26008 4.45L4.72008 3.48L4.03008 3.05L0.520081 0.850004V-0.0799963L0.530081 -0.0899963L0.560081 -0.0799963H2.00008L6.42008 2.7L6.86008 2.97L6.98008 3.05L7.67008 3.48L7.74008 3.52L8.01008 3.69L8.42008 3.95L8.50008 4L8.86008 4.23L9.21008 4.45L10.1701 5.05L10.8601 5.48L14.6801 7.88Z" fill="#FCF5FF"/>
<path d="M14.6801 8.76999V8.80999L13.7401 8.79999L8.86008 5.73999L8.44008 5.47999L8.42008 5.46999L8.01008 5.20999L7.75008 5.04999L7.29008 4.75999L6.86008 4.48999L6.80008 4.44999L6.53008 4.27999L6.42008 4.21999L5.25008 3.47999L4.56008 3.04999L0.520081 0.509994V-0.100006L0.530081 -0.0900061L0.560081 -0.0800061L5.54008 3.04999L6.23008 3.47999L6.42008 3.59999L6.86008 3.86999L7.02008 3.97999L7.29008 4.13999L7.78008 4.44999L8.42008 4.84999L8.50008 4.89999L8.73008 5.04999L8.86008 5.12999L9.43008 5.47999L14.6801 8.76999Z" fill="#FF3B45"/>
<path d="M14.6801 0.100013V1.02001L11.4501 3.05001L10.7601 3.48001L9.21008 4.45001L8.86008 4.67001L8.50008 4.90001L8.42008 4.95001L8.26008 5.05001L8.01008 5.21001L7.74008 5.37001L7.57008 5.48001L6.86008 5.93001L6.42008 6.20001L2.27008 8.80001H0.520081V8.05001L4.62008 5.48001L5.31008 5.05001L6.26008 4.45001L6.42008 4.35001L6.53008 4.28001L6.86008 4.08001L7.02008 3.98001L7.74008 3.52001L7.81008 3.48001L8.42008 3.10001L8.50008 3.05001L8.86008 2.82001L13.4801 -0.0799866H14.5701L14.6801 0.100013Z" fill="#FCF5FF"/>
<path d="M14.6401 0.140013L10.0201 3.05001L9.32008 3.48001L8.86008 3.77001L8.50008 4.00001L8.42008 4.05001L7.78008 4.45001L7.29008 4.76001L7.02008 4.92001L6.86008 5.03001L6.83008 5.05001L6.42008 5.30001L6.13008 5.48001L0.840081 8.80001H0.520081V8.39001L5.15008 5.48001L5.84008 5.05001L6.42008 4.68001L6.53008 4.62001L6.80008 4.45001L6.86008 4.41001L7.29008 4.14001L8.01008 3.69001L8.34008 3.48001L8.42008 3.43001L8.86008 3.16001L9.04008 3.05001L14.0101 -0.0799866H14.5101H14.6801V0.120013L14.6401 0.140013Z" fill="#FF3B45"/>
<path d="M14.6901 3.04999H0.510071V5.47999H14.6901V3.04999Z" fill="white"/>
<path d="M14.6901 3.48001H0.510071V5.05001H14.6901V3.48001Z" fill="#FF3B45"/>
<path d="M8.43005 -0.0799866H6.86005V8.80001H8.43005V-0.0799866Z" fill="#CD002A"/>
<path d="M8.42004 5.48001H8.86004V8.80001H6.42004V5.48001H6.86004V3.05001H6.42004V-0.0799866H8.86004V3.05001H8.42004V5.48001Z" fill="white"/>
<path d="M8.43004 -0.0799866H6.85004V8.80001H8.43004V-0.0799866Z" fill="#FF3B45"/>
</g>
<defs>
<clipPath id="clip0_1045_7605">
<rect width="28.38" height="17.55" fill="white" transform="translate(0.560059)"/>
</clipPath>
</defs>
</svg>
