<svg width="29" height="18" viewBox="0 0 29 18" fill="none" xmlns="http://www.w3.org/2000/svg">
<g clip-path="url(#clip0_1045_7466)">
<path d="M27.3901 -0.230011H1.61008C0.765083 -0.230011 0.0800781 0.454993 0.0800781 1.29999V16.32C0.0800781 17.165 0.765083 17.85 1.61008 17.85H27.3901C28.2351 17.85 28.9201 17.165 28.9201 16.32V1.29999C28.9201 0.454993 28.2351 -0.230011 27.3901 -0.230011Z" fill="white"/>
<path d="M0.0800781 8.77999H28.9101V1.29999C28.9101 0.459989 28.2301 -0.230011 27.3801 -0.230011H1.61008C0.760078 -0.230011 0.0800781 0.449989 0.0800781 1.29999V8.78999V8.77999Z" fill="#FF3B45"/>
<path d="M6.63007 7.73999C6.35007 7.80999 6.06007 7.83999 5.77007 7.83999C3.73007 7.83999 2.07007 6.17999 2.07007 4.13999C2.07007 2.09999 3.73007 0.429993 5.77007 0.429993C6.07007 0.429993 6.36007 0.459993 6.63007 0.529993C5.00007 0.919993 3.79007 2.37999 3.79007 4.12999C3.79007 5.87999 5.00007 7.33999 6.63007 7.72999V7.73999Z" fill="white"/>
<path d="M10.4002 3.59998L10.6502 4.31998L10.0402 3.86998L9.43018 4.31998L9.69018 3.59998L9.06018 3.16998H9.82018L10.0302 2.44998L10.2602 3.16998H11.0202L10.3902 3.59998H10.4002Z" fill="white"/>
<path d="M6.58012 3.59998L6.84012 4.31998L6.23012 3.86998H6.22012L5.62012 4.31998L5.87012 3.59998H5.88012H5.87012L5.25012 3.16998H6.00012L6.21012 2.44998L6.44012 3.16998H7.21012L6.58012 3.59998H6.57012H6.58012Z" fill="white"/>
<path d="M9.77006 5.77L10.0301 6.49L9.42006 6.04V6.03L9.41006 6.04L8.81006 6.49L9.06006 5.77L9.07006 5.76H9.06006L8.44006 5.34H9.19006L9.40006 4.62L9.63006 5.34H10.4001L9.77006 5.76H9.76006L9.77006 5.77Z" fill="white"/>
<path d="M7.37015 5.77L7.62015 6.49L7.01015 6.04V6.03V6.04L6.40015 6.49L6.66015 5.77V5.76L6.03015 5.34H6.79015L6.99015 4.62L7.23015 5.34H7.99015L7.36015 5.76L7.37015 5.77Z" fill="white"/>
<path d="M8.51017 2.13999L8.77017 2.85999L8.16017 2.40999H8.15017L7.54017 2.85999L7.80017 2.13999H7.81017H7.80017L7.17017 1.70999H7.93017L8.14017 0.98999L8.37017 1.70999H9.13017L8.50017 2.13999H8.51017Z" fill="white"/>
</g>
<defs>
<clipPath id="clip0_1045_7466">
<rect width="28.38" height="17.55" fill="white" transform="translate(0.280029)"/>
</clipPath>
</defs>
</svg>
