<svg width="29" height="18" viewBox="0 0 29 18" fill="none" xmlns="http://www.w3.org/2000/svg">
<g clip-path="url(#clip0_1045_7307)">
<path d="M28.38 5.39999H0V6.74999H28.38V5.39999Z" fill="#FF3B45"/>
<path d="M28.38 2.70001H0V4.05001H28.38V2.70001Z" fill="#FF3B45"/>
<path d="M28.38 0H0V1.35H28.38V0Z" fill="#FF3B45"/>
<path d="M28.38 8.10001H0V9.45001H28.38V8.10001Z" fill="#FF3B45"/>
<path d="M28.38 10.8H0V12.15H28.38V10.8Z" fill="#FF3B45"/>
<path d="M28.38 13.5H0V14.85H28.38V13.5Z" fill="#FF3B45"/>
<path d="M28.38 16.19H0V17.54H28.38V16.19Z" fill="#FF3B45"/>
<path d="M28.38 4.04999H0V5.39999H28.38V4.04999Z" fill="white"/>
<path d="M28.38 1.35001H0V2.70001H28.38V1.35001Z" fill="white"/>
<path d="M28.38 6.75H0V8.1H28.38V6.75Z" fill="white"/>
<path d="M28.38 9.45001H0V10.8H28.38V9.45001Z" fill="white"/>
<path d="M28.38 12.15H0V13.5H28.38V12.15Z" fill="white"/>
<path d="M28.38 14.85H0V16.2H28.38V14.85Z" fill="white"/>
<path d="M10.61 0H0V8.17H10.61V0Z" fill="#2E4593"/>
<path d="M8.86991 1.62L8.97991 1.94L8.70991 1.74L8.43991 1.94L8.54991 1.62H8.55991L8.27991 1.44H8.60991L8.69991 1.12L8.80991 1.44H9.13991L8.86991 1.62H8.85991H8.86991Z" fill="white"/>
<path d="M8.86991 3.27999L8.97991 3.58999L8.70991 3.38999L8.43991 3.58999L8.54991 3.27999L8.55991 3.26999L8.27991 3.08999H8.60991L8.69991 2.76999L8.80991 3.08999H9.13991L8.86991 3.26999H8.85991L8.86991 3.27999Z" fill="white"/>
<path d="M8.86991 4.92998L8.97991 5.23998L8.70991 5.03998L8.43991 5.23998L8.54991 4.92998L8.55991 4.91998L8.27991 4.73998H8.60991L8.69991 4.41998L8.80991 4.73998H9.13991L8.86991 4.91998H8.85991L8.86991 4.92998Z" fill="white"/>
<path d="M8.86991 6.58001L8.97991 6.89001L8.70991 6.69001L8.43991 6.89001L8.54991 6.58001L8.55991 6.57001L8.27991 6.39001H8.60991L8.69991 6.07001L8.80991 6.39001H9.13991L8.86991 6.57001H8.85991L8.86991 6.58001Z" fill="white"/>
<path d="M7.10991 1.62L7.22991 1.94L6.95991 1.74L6.68991 1.94L6.79991 1.62L6.52991 1.44H6.85991L6.94991 1.12L7.04991 1.44H7.38991L7.10991 1.62Z" fill="white"/>
<path d="M7.10991 3.27999L7.22991 3.58999L6.95991 3.38999L6.68991 3.58999L6.79991 3.27999V3.26999L6.52991 3.08999H6.85991L6.94991 2.76999L7.04991 3.08999H7.38991L7.10991 3.26999V3.27999Z" fill="white"/>
<path d="M7.10991 4.92998L7.22991 5.23998L6.95991 5.03998L6.68991 5.23998L6.79991 4.92998V4.91998L6.52991 4.73998H6.85991L6.94991 4.41998L7.04991 4.73998H7.38991L7.10991 4.91998V4.92998Z" fill="white"/>
<path d="M7.10991 6.58001L7.22991 6.89001L6.95991 6.69001L6.68991 6.89001L6.79991 6.58001V6.57001L6.52991 6.39001H6.85991L6.94991 6.07001L7.04991 6.39001H7.38991L7.10991 6.57001V6.58001Z" fill="white"/>
<path d="M5.3599 1.62L5.4699 1.94L5.1999 1.74L4.9299 1.94L5.0399 1.62H5.0499L4.7699 1.44H5.0999L5.1899 1.12L5.2999 1.44H5.6299L5.3599 1.62H5.3499H5.3599Z" fill="white"/>
<path d="M5.3599 3.27999L5.4699 3.58999L5.1999 3.38999L4.9299 3.58999L5.0399 3.27999L5.0499 3.26999L4.7699 3.08999H5.0999L5.1899 2.76999L5.2999 3.08999H5.6299L5.3599 3.26999H5.3499L5.3599 3.27999Z" fill="white"/>
<path d="M5.3599 4.92998L5.4699 5.23998L5.1999 5.03998L4.9299 5.23998L5.0399 4.92998L5.0499 4.91998L4.7699 4.73998H5.0999L5.1899 4.41998L5.2999 4.73998H5.6299L5.3599 4.91998H5.3499L5.3599 4.92998Z" fill="white"/>
<path d="M5.3599 6.58001L5.4699 6.89001L5.1999 6.69001L4.9299 6.89001L5.0399 6.58001L5.0499 6.57001L4.7699 6.39001H5.0999L5.1899 6.07001L5.2999 6.39001H5.6299L5.3599 6.57001H5.3499L5.3599 6.58001Z" fill="white"/>
<path d="M3.62992 1.62L3.73992 1.94L3.46992 1.74L3.20992 1.94L3.31992 1.62L3.03992 1.44H3.37992L3.46992 1.12L3.56992 1.44H3.90992L3.62992 1.62Z" fill="white"/>
<path d="M3.62992 3.27999L3.73992 3.58999L3.46992 3.38999L3.20992 3.58999L3.31992 3.27999V3.26999L3.03992 3.08999H3.37992L3.46992 2.76999L3.56992 3.08999H3.90992L3.62992 3.26999V3.27999Z" fill="white"/>
<path d="M3.62992 4.92998L3.73992 5.23998L3.46992 5.03998L3.20992 5.23998L3.31992 4.92998V4.91998L3.03992 4.73998H3.37992L3.46992 4.41998L3.56992 4.73998H3.90992L3.62992 4.91998V4.92998Z" fill="white"/>
<path d="M3.62992 6.58001L3.73992 6.89001L3.46992 6.69001L3.20992 6.89001L3.31992 6.58001V6.57001L3.03992 6.39001H3.37992L3.46992 6.07001L3.56992 6.39001H3.90992L3.62992 6.57001V6.58001Z" fill="white"/>
<path d="M1.89995 1.62L2.01995 1.94L1.74995 1.74L1.47995 1.94L1.58995 1.62L1.31995 1.44H1.64995L1.73995 1.12L1.83995 1.44H2.17995L1.89995 1.62Z" fill="white"/>
<path d="M1.89995 3.27999L2.01995 3.58999L1.74995 3.38999L1.47995 3.58999L1.58995 3.27999V3.26999L1.31995 3.08999H1.64995L1.73995 2.76999L1.83995 3.08999H2.17995L1.89995 3.26999V3.27999Z" fill="white"/>
<path d="M1.89995 4.92998L2.01995 5.23998L1.74995 5.03998L1.47995 5.23998L1.58995 4.92998V4.91998L1.31995 4.73998H1.64995L1.73995 4.41998L1.83995 4.73998H2.17995L1.89995 4.91998V4.92998Z" fill="white"/>
<path d="M1.89995 6.58001L2.01995 6.89001L1.74995 6.69001L1.47995 6.89001L1.58995 6.58001V6.57001L1.31995 6.39001H1.64995L1.73995 6.07001L1.83995 6.39001H2.17995L1.89995 6.57001V6.58001Z" fill="white"/>
<path d="M9.71988 2.45L9.82988 2.76L9.55988 2.57L9.28988 2.76L9.40988 2.45L9.12988 2.26H9.45988L9.54988 1.94L9.65988 2.26H9.98988L9.71988 2.45Z" fill="white"/>
<path d="M9.71988 4.1L9.82988 4.42L9.55988 4.22L9.28988 4.42L9.40988 4.1L9.12988 3.91H9.45988L9.54988 3.59L9.65988 3.91H9.98988L9.71988 4.1Z" fill="white"/>
<path d="M9.71988 5.75L9.82988 6.07L9.55988 5.87L9.28988 6.07L9.40988 5.75L9.12988 5.56H9.45988L9.54988 5.25L9.65988 5.56H9.98988L9.71988 5.75Z" fill="white"/>
<path d="M9.71988 7.39999L9.82988 7.71999L9.55988 7.51999L9.28988 7.71999L9.40988 7.39999L9.12988 7.21999H9.45988L9.54988 6.89999L9.65988 7.21999H9.98988L9.71988 7.39999Z" fill="white"/>
<path d="M9.71988 0.809988L9.82988 1.11999L9.55988 0.919988L9.28988 1.11999L9.40988 0.809988V0.799988L9.12988 0.619988H9.45988L9.54988 0.299988L9.65988 0.619988H9.98988L9.71988 0.799988V0.809988Z" fill="white"/>
<path d="M7.99991 2.45L8.11991 2.76L7.84991 2.57L7.57991 2.76L7.68991 2.45L7.40991 2.26H7.74991L7.83991 1.94L7.93991 2.26H8.27991L7.99991 2.45Z" fill="white"/>
<path d="M7.99991 4.1L8.11991 4.42L7.84991 4.22L7.57991 4.42L7.68991 4.1L7.40991 3.91H7.74991L7.83991 3.59L7.93991 3.91H8.27991L7.99991 4.1Z" fill="white"/>
<path d="M7.99991 5.75L8.11991 6.07L7.84991 5.87L7.57991 6.07L7.68991 5.75L7.40991 5.56H7.74991L7.83991 5.25L7.93991 5.56H8.27991L7.99991 5.75Z" fill="white"/>
<path d="M7.99991 7.39999L8.11991 7.71999L7.84991 7.51999L7.57991 7.71999L7.68991 7.39999L7.40991 7.21999H7.74991L7.83991 6.89999L7.93991 7.21999H8.27991L7.99991 7.39999Z" fill="white"/>
<path d="M7.99991 0.809988L8.11991 1.11999L7.84991 0.919988L7.57991 1.11999L7.68991 0.809988V0.799988L7.40991 0.619988H7.74991L7.83991 0.299988L7.93991 0.619988H8.27991L7.99991 0.799988V0.809988Z" fill="white"/>
<path d="M6.21988 2.45L6.32988 2.76L6.05988 2.57L5.78988 2.76L5.90988 2.45L5.62988 2.26H5.95988L6.04988 1.94L6.15988 2.26H6.48988L6.21988 2.45H6.20988H6.21988Z" fill="white"/>
<path d="M6.21988 4.1L6.32988 4.42L6.05988 4.22L5.78988 4.42L5.90988 4.1L5.62988 3.91H5.95988L6.04988 3.59L6.15988 3.91H6.48988L6.21988 4.1H6.20988H6.21988Z" fill="white"/>
<path d="M6.21988 5.75L6.32988 6.07L6.05988 5.87L5.78988 6.07L5.90988 5.75L5.62988 5.56H5.95988L6.04988 5.25L6.15988 5.56H6.48988L6.21988 5.75H6.20988H6.21988Z" fill="white"/>
<path d="M6.21988 7.39999L6.32988 7.71999L6.05988 7.51999L5.78988 7.71999L5.90988 7.39999L5.62988 7.21999H5.95988L6.04988 6.89999L6.15988 7.21999H6.48988L6.21988 7.39999H6.20988H6.21988Z" fill="white"/>
<path d="M6.21988 0.809988L6.32988 1.11999L6.05988 0.919988L5.78988 1.11999L5.90988 0.809988V0.799988L5.62988 0.619988H5.95988L6.04988 0.299988L6.15988 0.619988H6.48988L6.21988 0.799988H6.20988L6.21988 0.809988Z" fill="white"/>
<path d="M4.46989 2.45L4.57989 2.76L4.31989 2.57L4.04989 2.76L4.15989 2.45L3.88989 2.26H4.21989L4.30989 1.94L4.40989 2.26H4.74989L4.46989 2.45Z" fill="white"/>
<path d="M4.46989 4.1L4.57989 4.42L4.31989 4.22L4.04989 4.42L4.15989 4.1L3.88989 3.91H4.21989L4.30989 3.59L4.40989 3.91H4.74989L4.46989 4.1Z" fill="white"/>
<path d="M4.46989 5.75L4.57989 6.07L4.31989 5.87L4.04989 6.07L4.15989 5.75L3.88989 5.56H4.21989L4.30989 5.25L4.40989 5.56H4.74989L4.46989 5.75Z" fill="white"/>
<path d="M4.46989 7.39999L4.57989 7.71999L4.31989 7.51999L4.04989 7.71999L4.15989 7.39999L3.88989 7.21999H4.21989L4.30989 6.89999L4.40989 7.21999H4.74989L4.46989 7.39999Z" fill="white"/>
<path d="M4.46989 0.809988L4.57989 1.11999L4.31989 0.919988L4.04989 1.11999L4.15989 0.809988V0.799988L3.88989 0.619988H4.21989L4.30989 0.299988L4.40989 0.619988H4.74989L4.46989 0.799988V0.809988Z" fill="white"/>
<path d="M2.75993 2.45L2.87993 2.76L2.60993 2.57L2.33993 2.76L2.44993 2.45L2.17993 2.26H2.50993L2.59993 1.94L2.69993 2.26H3.03993L2.75993 2.45Z" fill="white"/>
<path d="M2.75993 4.1L2.87993 4.42L2.60993 4.22L2.33993 4.42L2.44993 4.1L2.17993 3.91H2.50993L2.59993 3.59L2.69993 3.91H3.03993L2.75993 4.1Z" fill="white"/>
<path d="M2.75993 5.75L2.87993 6.07L2.60993 5.87L2.33993 6.07L2.44993 5.75L2.17993 5.56H2.50993L2.59993 5.25L2.69993 5.56H3.03993L2.75993 5.75Z" fill="white"/>
<path d="M2.75993 7.39999L2.87993 7.71999L2.60993 7.51999L2.33993 7.71999L2.44993 7.39999L2.17993 7.21999H2.50993L2.59993 6.89999L2.69993 7.21999H3.03993L2.75993 7.39999Z" fill="white"/>
<path d="M2.75993 0.809988L2.87993 1.11999L2.60993 0.919988L2.33993 1.11999L2.44993 0.809988V0.799988L2.17993 0.619988H2.50993L2.59993 0.299988L2.69993 0.619988H3.03993L2.75993 0.799988V0.809988Z" fill="white"/>
<path d="M1.02994 2.45L1.13994 2.76L0.869941 2.57L0.599941 2.76L0.709941 2.45H0.719941L0.439941 2.26H0.769941L0.859941 1.94L0.959941 2.26H1.29994L1.01994 2.45H1.02994Z" fill="white"/>
<path d="M1.02994 4.1L1.13994 4.42L0.869941 4.22L0.599941 4.42L0.709941 4.1H0.719941L0.439941 3.91H0.769941L0.859941 3.59L0.959941 3.91H1.29994L1.01994 4.1H1.02994Z" fill="white"/>
<path d="M1.02994 5.75L1.13994 6.07L0.869941 5.87L0.599941 6.07L0.709941 5.75H0.719941L0.439941 5.56H0.769941L0.859941 5.25L0.959941 5.56H1.29994L1.01994 5.75H1.02994Z" fill="white"/>
<path d="M1.02994 7.39999L1.13994 7.71999L0.869941 7.51999L0.599941 7.71999L0.709941 7.39999H0.719941L0.439941 7.21999H0.769941L0.859941 6.89999L0.959941 7.21999H1.29994L1.01994 7.39999H1.02994Z" fill="white"/>
<path d="M1.02994 0.809988L1.13994 1.11999L0.869941 0.919988L0.599941 1.11999L0.709941 0.809988L0.719941 0.799988L0.439941 0.619988H0.769941L0.859941 0.299988L0.959941 0.619988H1.29994L1.01994 0.799988L1.02994 0.809988Z" fill="white"/>
</g>
<defs>
<clipPath id="clip0_1045_7307">
<rect width="28.38" height="17.55" rx="2" fill="white"/>
</clipPath>
</defs>
</svg>
